<svg width="24" height="24" viewBox="0 0 24 24" fill="none" xmlns="http://www.w3.org/2000/svg">
<g clip-path="url(#clip0_35_265)">
<path d="M24 2.84287C23.3317 4.06666 22.5117 5.10989 21.5402 5.97254C21.5498 6.2039 21.5546 6.4654 21.5546 6.75703C21.5546 8.3774 21.3627 9.99973 20.9789 11.624C20.5951 13.2483 20.0088 14.8031 19.2201 16.2882C18.4314 17.7734 17.4918 19.0892 16.4015 20.2355C15.3112 21.3818 14.0006 22.2958 12.4697 22.9775C10.9388 23.6592 9.29815 24 7.54763 24C4.81566 24 2.29978 23.0921 0 21.2762C0.408184 21.3321 0.799667 21.3601 1.17445 21.3601C3.45679 21.3601 5.49529 20.4947 7.28994 18.7638C6.22578 18.7398 5.27275 18.3365 4.43084 17.554C3.58894 16.7715 3.00956 15.7716 2.6927 14.5543C3.00589 14.6277 3.315 14.6645 3.62003 14.6645C4.05909 14.6645 4.49112 14.594 4.91613 14.453C3.78047 14.173 2.83835 13.4766 2.08976 12.364C1.3412 11.2514 0.966919 9.9672 0.966919 8.51146V8.43643C1.66399 8.91157 2.40752 9.1643 3.19752 9.19464C2.52477 8.64251 1.99138 7.92252 1.59735 7.03466C1.20329 6.14681 1.00626 5.18599 1.00626 4.15222C1.00626 3.06193 1.22819 2.04666 1.67205 1.10642C2.90705 2.97214 4.40352 4.46327 6.16144 5.57983C7.91939 6.69641 9.80534 7.31652 11.8193 7.44017C11.7334 6.99948 11.6903 6.5396 11.6902 6.06053C11.6902 4.38779 12.171 2.95952 13.1327 1.77571C14.0945 0.591904 15.2547 0 16.6135 0C18.0361 0 19.2344 0.637688 20.2083 1.91306C21.3211 1.64172 22.363 1.15093 23.3341 0.440688C22.96 1.89013 22.2391 3.00827 21.1714 3.79512C22.1527 3.65157 23.0955 3.33415 24 2.84287H24Z" fill="#252525"/>
</g>
<defs>
<clipPath id="clip0_35_265">
<rect width="24" height="24" fill="white"/>
</clipPath>
</defs>
</svg>
